<mxfile host="65bd71144e" pages="3">
    <diagram id="sGHtnwmwazoI8e1FeK_W" name="Sơ đồ phân chia điện áp">
        <mxGraphModel dx="832" dy="488" grid="0" gridSize="10" guides="1" tooltips="1" connect="1" arrows="1" fold="1" page="0" pageScale="1" pageWidth="1169" pageHeight="827" math="0" shadow="0">
            <root>
                <mxCell id="0"/>
                <mxCell id="1" parent="0"/>
                <mxCell id="J04aRP4YRwg-HHfzy6TA-68" style="edgeStyle=orthogonalEdgeStyle;rounded=1;orthogonalLoop=1;jettySize=auto;html=1;entryX=0;entryY=0.5;entryDx=0;entryDy=0;fontSize=16;strokeWidth=2;movable=0;resizable=0;rotatable=0;deletable=0;editable=0;connectable=0;" parent="1" source="J04aRP4YRwg-HHfzy6TA-52" target="J04aRP4YRwg-HHfzy6TA-58" edge="1">
                    <mxGeometry relative="1" as="geometry"/>
                </mxCell>
                <mxCell id="J04aRP4YRwg-HHfzy6TA-1" value="&lt;font style=&quot;font-size: 20px;&quot;&gt;&lt;b&gt;COUNTER&lt;/b&gt;&lt;/font&gt;" style="rounded=0;whiteSpace=wrap;html=1;verticalAlign=top;movable=0;resizable=0;rotatable=0;deletable=0;editable=0;connectable=0;" parent="1" vertex="1">
                    <mxGeometry x="570" y="105" width="120" height="60" as="geometry"/>
                </mxCell>
                <mxCell id="J04aRP4YRwg-HHfzy6TA-3" value="&lt;font style=&quot;font-size: 34px;&quot;&gt;&lt;b&gt;FPGA&lt;/b&gt;&lt;/font&gt;" style="whiteSpace=wrap;html=1;aspect=fixed;movable=0;resizable=0;rotatable=0;deletable=0;editable=0;connectable=0;" parent="1" vertex="1">
                    <mxGeometry x="140" y="240" width="230" height="230" as="geometry"/>
                </mxCell>
                <mxCell id="J04aRP4YRwg-HHfzy6TA-7" value="" style="shape=singleArrow;direction=west;whiteSpace=wrap;html=1;fontSize=34;arrowWidth=0.28095255049448237;arrowSize=0.12500002119276274;movable=0;resizable=0;rotatable=0;deletable=0;editable=0;connectable=0;" parent="1" vertex="1">
                    <mxGeometry x="370" y="260" width="206" height="70" as="geometry"/>
                </mxCell>
                <mxCell id="J04aRP4YRwg-HHfzy6TA-9" value="" style="shape=singleArrow;whiteSpace=wrap;html=1;fontSize=20;movable=0;resizable=0;rotatable=0;deletable=0;editable=0;connectable=0;" parent="1" vertex="1">
                    <mxGeometry x="370" y="400" width="100" height="60" as="geometry"/>
                </mxCell>
                <mxCell id="J04aRP4YRwg-HHfzy6TA-10" value="&lt;font style=&quot;font-size: 20px;&quot;&gt;3.3V-5V&lt;/font&gt;" style="rounded=0;whiteSpace=wrap;html=1;movable=0;resizable=0;rotatable=0;deletable=0;editable=0;connectable=0;" parent="1" vertex="1">
                    <mxGeometry x="690" y="403" width="120" height="60" as="geometry"/>
                </mxCell>
                <mxCell id="J04aRP4YRwg-HHfzy6TA-19" value="3.3V" style="text;html=1;align=center;verticalAlign=middle;resizable=0;points=[];autosize=1;strokeColor=none;fillColor=none;fontSize=16;movable=0;rotatable=0;deletable=0;editable=0;connectable=0;" parent="1" vertex="1">
                    <mxGeometry x="460" y="280" width="60" height="30" as="geometry"/>
                </mxCell>
                <mxCell id="J04aRP4YRwg-HHfzy6TA-20" value="3.3V" style="text;html=1;align=center;verticalAlign=middle;resizable=0;points=[];autosize=1;strokeColor=none;fillColor=none;fontSize=16;movable=0;rotatable=0;deletable=0;editable=0;connectable=0;" parent="1" vertex="1">
                    <mxGeometry x="390" y="415" width="60" height="30" as="geometry"/>
                </mxCell>
                <mxCell id="J04aRP4YRwg-HHfzy6TA-23" value="&lt;font style=&quot;font-size: 20px;&quot;&gt;&lt;b&gt;MẠCH KIỂM TRA&lt;/b&gt;&lt;/font&gt;" style="rounded=0;whiteSpace=wrap;html=1;fontSize=20;movable=0;resizable=0;rotatable=0;deletable=0;editable=0;connectable=0;" parent="1" vertex="1">
                    <mxGeometry x="910" y="250" width="74" height="233" as="geometry"/>
                </mxCell>
                <mxCell id="J04aRP4YRwg-HHfzy6TA-27" value="&lt;font size=&quot;1&quot; style=&quot;&quot;&gt;&lt;b style=&quot;font-size: 20px;&quot;&gt;RAM_IN&lt;/b&gt;&lt;/font&gt;" style="rounded=0;whiteSpace=wrap;html=1;verticalAlign=top;movable=0;resizable=0;rotatable=0;deletable=0;editable=0;connectable=0;" parent="1" vertex="1">
                    <mxGeometry x="470" y="400" width="120" height="60" as="geometry"/>
                </mxCell>
                <mxCell id="J04aRP4YRwg-HHfzy6TA-32" value="" style="shape=singleArrow;direction=west;whiteSpace=wrap;html=1;fontSize=34;arrowWidth=0.3129626803927958;arrowSize=0.15432096881630994;movable=0;resizable=0;rotatable=0;deletable=0;editable=0;connectable=0;" parent="1" vertex="1">
                    <mxGeometry x="691" y="265" width="219" height="60" as="geometry"/>
                </mxCell>
                <mxCell id="J04aRP4YRwg-HHfzy6TA-34" value="5V" style="text;html=1;align=center;verticalAlign=middle;resizable=0;points=[];autosize=1;strokeColor=none;fillColor=none;fontSize=16;movable=0;rotatable=0;deletable=0;editable=0;connectable=0;" parent="1" vertex="1">
                    <mxGeometry x="610" y="135" width="40" height="30" as="geometry"/>
                </mxCell>
                <mxCell id="J04aRP4YRwg-HHfzy6TA-35" value="" style="shape=singleArrow;whiteSpace=wrap;html=1;fontSize=20;movable=0;resizable=0;rotatable=0;deletable=0;editable=0;connectable=0;" parent="1" vertex="1">
                    <mxGeometry x="810" y="400" width="100" height="60" as="geometry"/>
                </mxCell>
                <mxCell id="J04aRP4YRwg-HHfzy6TA-36" value="5V" style="text;html=1;align=center;verticalAlign=middle;resizable=0;points=[];autosize=1;strokeColor=none;fillColor=none;fontSize=16;movable=0;rotatable=0;deletable=0;editable=0;connectable=0;" parent="1" vertex="1">
                    <mxGeometry x="830" y="415" width="40" height="30" as="geometry"/>
                </mxCell>
                <mxCell id="J04aRP4YRwg-HHfzy6TA-37" value="3.3V, 2.5V, 1.8V, 1.2V" style="text;html=1;align=center;verticalAlign=middle;resizable=0;points=[];autosize=1;strokeColor=none;fillColor=none;fontSize=16;movable=0;rotatable=0;deletable=0;editable=0;connectable=0;" parent="1" vertex="1">
                    <mxGeometry x="165" y="385" width="180" height="30" as="geometry"/>
                </mxCell>
                <mxCell id="J04aRP4YRwg-HHfzy6TA-38" value="5V" style="text;html=1;align=center;verticalAlign=middle;resizable=0;points=[];autosize=1;strokeColor=none;fillColor=none;fontSize=16;movable=0;rotatable=0;deletable=0;editable=0;connectable=0;" parent="1" vertex="1">
                    <mxGeometry x="925" y="410" width="40" height="30" as="geometry"/>
                </mxCell>
                <mxCell id="J04aRP4YRwg-HHfzy6TA-39" value="5V" style="text;html=1;align=center;verticalAlign=middle;resizable=0;points=[];autosize=1;strokeColor=none;fillColor=none;fontSize=16;movable=0;rotatable=0;deletable=0;editable=0;connectable=0;" parent="1" vertex="1">
                    <mxGeometry x="510" y="430" width="40" height="30" as="geometry"/>
                </mxCell>
                <mxCell id="J04aRP4YRwg-HHfzy6TA-40" value="5V" style="text;html=1;align=center;verticalAlign=middle;resizable=0;points=[];autosize=1;strokeColor=none;fillColor=none;fontSize=16;movable=0;rotatable=0;deletable=0;editable=0;connectable=0;" parent="1" vertex="1">
                    <mxGeometry x="793" y="280" width="40" height="30" as="geometry"/>
                </mxCell>
                <mxCell id="J04aRP4YRwg-HHfzy6TA-41" value="" style="shape=singleArrow;whiteSpace=wrap;html=1;fontSize=20;movable=0;resizable=0;rotatable=0;deletable=0;editable=0;connectable=0;" parent="1" vertex="1">
                    <mxGeometry x="590" y="403" width="100" height="60" as="geometry"/>
                </mxCell>
                <mxCell id="J04aRP4YRwg-HHfzy6TA-42" value="3.3V" style="text;html=1;align=center;verticalAlign=middle;resizable=0;points=[];autosize=1;strokeColor=none;fillColor=none;fontSize=16;movable=0;rotatable=0;deletable=0;editable=0;connectable=0;" parent="1" vertex="1">
                    <mxGeometry x="610" y="418" width="60" height="30" as="geometry"/>
                </mxCell>
                <mxCell id="J04aRP4YRwg-HHfzy6TA-45" value="&lt;font size=&quot;1&quot; style=&quot;&quot;&gt;&lt;b style=&quot;font-size: 20px;&quot;&gt;RAM_OUT&lt;/b&gt;&lt;/font&gt;" style="rounded=0;whiteSpace=wrap;html=1;fillColor=default;verticalAlign=top;movable=0;resizable=0;rotatable=0;deletable=0;editable=0;connectable=0;" parent="1" vertex="1">
                    <mxGeometry x="570" y="265" width="120" height="60" as="geometry"/>
                </mxCell>
                <mxCell id="J04aRP4YRwg-HHfzy6TA-48" value="5V" style="text;html=1;align=center;verticalAlign=middle;resizable=0;points=[];autosize=1;strokeColor=none;fillColor=none;fontSize=16;movable=0;rotatable=0;deletable=0;editable=0;connectable=0;" parent="1" vertex="1">
                    <mxGeometry x="610" y="295" width="40" height="30" as="geometry"/>
                </mxCell>
                <mxCell id="J04aRP4YRwg-HHfzy6TA-49" value="" style="shape=singleArrow;direction=south;whiteSpace=wrap;html=1;shadow=0;fontSize=16;fillColor=none;arrowWidth=0.42000081380208104;arrowSize=0.23080004882812546;movable=0;resizable=0;rotatable=0;deletable=0;editable=0;connectable=0;" parent="1" vertex="1">
                    <mxGeometry x="600" y="165" width="60" height="100" as="geometry"/>
                </mxCell>
                <mxCell id="J04aRP4YRwg-HHfzy6TA-55" style="edgeStyle=orthogonalEdgeStyle;rounded=0;orthogonalLoop=1;jettySize=auto;html=1;exitX=1;exitY=0.5;exitDx=0;exitDy=0;entryX=0;entryY=0.5;entryDx=0;entryDy=0;fontSize=16;strokeWidth=2;movable=0;resizable=0;rotatable=0;deletable=0;editable=0;connectable=0;" parent="1" source="J04aRP4YRwg-HHfzy6TA-52" target="J04aRP4YRwg-HHfzy6TA-1" edge="1">
                    <mxGeometry relative="1" as="geometry"/>
                </mxCell>
                <mxCell id="J04aRP4YRwg-HHfzy6TA-52" value="&lt;font style=&quot;font-size: 20px;&quot;&gt;3.3V-5V&lt;/font&gt;" style="rounded=0;whiteSpace=wrap;html=1;movable=0;resizable=0;rotatable=0;deletable=0;editable=0;connectable=0;" parent="1" vertex="1">
                    <mxGeometry x="364" y="105" width="120" height="60" as="geometry"/>
                </mxCell>
                <mxCell id="J04aRP4YRwg-HHfzy6TA-63" style="edgeStyle=orthogonalEdgeStyle;rounded=1;orthogonalLoop=1;jettySize=auto;html=1;entryX=0;entryY=0.5;entryDx=0;entryDy=0;fontSize=16;strokeWidth=2;movable=0;resizable=0;rotatable=0;deletable=0;editable=0;connectable=0;" parent="1" source="J04aRP4YRwg-HHfzy6TA-3" target="J04aRP4YRwg-HHfzy6TA-52" edge="1">
                    <mxGeometry relative="1" as="geometry"/>
                </mxCell>
                <mxCell id="J04aRP4YRwg-HHfzy6TA-58" value="&lt;font style=&quot;font-size: 20px;&quot;&gt;&lt;b&gt;COUNTER&lt;/b&gt;&lt;/font&gt;" style="rounded=0;whiteSpace=wrap;html=1;fillColor=default;verticalAlign=top;movable=0;resizable=0;rotatable=0;deletable=0;editable=0;connectable=0;" parent="1" vertex="1">
                    <mxGeometry x="470" y="560" width="120" height="60" as="geometry"/>
                </mxCell>
                <mxCell id="J04aRP4YRwg-HHfzy6TA-56" value="5V" style="text;html=1;align=center;verticalAlign=middle;resizable=0;points=[];autosize=1;strokeColor=none;fillColor=none;fontSize=16;movable=0;rotatable=0;deletable=0;editable=0;connectable=0;" parent="1" vertex="1">
                    <mxGeometry x="510" y="590" width="40" height="30" as="geometry"/>
                </mxCell>
                <mxCell id="J04aRP4YRwg-HHfzy6TA-59" value="" style="shape=singleArrow;direction=north;whiteSpace=wrap;html=1;shadow=0;fontSize=16;fillColor=none;arrowWidth=0.39599934895833255;arrowSize=0.1808001708984375;movable=0;resizable=0;rotatable=0;deletable=0;editable=0;connectable=0;" parent="1" vertex="1">
                    <mxGeometry x="500" y="460" width="60" height="100" as="geometry"/>
                </mxCell>
                <mxCell id="J04aRP4YRwg-HHfzy6TA-61" value="5V" style="text;html=1;align=center;verticalAlign=middle;resizable=0;points=[];autosize=1;strokeColor=none;fillColor=none;fontSize=16;movable=0;rotatable=0;deletable=0;editable=0;connectable=0;" parent="1" vertex="1">
                    <mxGeometry x="510" y="510" width="40" height="30" as="geometry"/>
                </mxCell>
                <mxCell id="J04aRP4YRwg-HHfzy6TA-64" value="5V" style="text;html=1;align=center;verticalAlign=middle;resizable=0;points=[];autosize=1;strokeColor=none;fillColor=none;fontSize=16;movable=0;rotatable=0;deletable=0;editable=0;connectable=0;" parent="1" vertex="1">
                    <mxGeometry x="610" y="190" width="40" height="30" as="geometry"/>
                </mxCell>
                <mxCell id="J04aRP4YRwg-HHfzy6TA-69" value="&lt;b&gt;USB-TTL&lt;/b&gt;" style="rounded=0;whiteSpace=wrap;html=1;shadow=0;fontSize=20;fillColor=default;verticalAlign=top;movable=0;resizable=0;rotatable=0;deletable=0;editable=0;connectable=0;" parent="1" vertex="1">
                    <mxGeometry x="195" y="560" width="120" height="70" as="geometry"/>
                </mxCell>
                <mxCell id="J04aRP4YRwg-HHfzy6TA-73" value="3.3V" style="text;html=1;align=center;verticalAlign=middle;resizable=0;points=[];autosize=1;strokeColor=none;fillColor=none;fontSize=16;movable=0;rotatable=0;deletable=0;editable=0;connectable=0;" parent="1" vertex="1">
                    <mxGeometry x="227" y="590" width="60" height="30" as="geometry"/>
                </mxCell>
                <mxCell id="J04aRP4YRwg-HHfzy6TA-74" value="" style="shape=doubleArrow;direction=south;whiteSpace=wrap;html=1;shadow=0;fontSize=20;fillColor=default;arrowWidth=0.4518532081886557;arrowSize=0.18333337100935726;movable=0;resizable=0;rotatable=0;deletable=0;editable=0;connectable=0;" parent="1" vertex="1">
                    <mxGeometry x="240" y="470" width="30" height="90" as="geometry"/>
                </mxCell>
                <mxCell id="J04aRP4YRwg-HHfzy6TA-75" value="&lt;font style=&quot;font-size: 12px;&quot;&gt;3.3V&lt;/font&gt;" style="text;html=1;align=center;verticalAlign=middle;resizable=0;points=[];autosize=1;strokeColor=none;fillColor=none;fontSize=20;shadow=0;rotation=-90;movable=0;rotatable=0;deletable=0;editable=0;connectable=0;" parent="1" vertex="1">
                    <mxGeometry x="227" y="495" width="50" height="40" as="geometry"/>
                </mxCell>
                <mxCell id="J04aRP4YRwg-HHfzy6TA-76" value="&lt;div style=&quot;&quot;&gt;&lt;b style=&quot;background-color: initial; font-size: 20px; line-height: 1.2;&quot;&gt;POWER SUPPLY&lt;/b&gt;&lt;/div&gt;" style="rounded=0;whiteSpace=wrap;html=1;shadow=0;fontSize=12;fillColor=default;align=center;verticalAlign=middle;movable=0;resizable=0;rotatable=0;deletable=0;editable=0;connectable=0;" parent="1" vertex="1">
                    <mxGeometry x="766" y="105" width="218" height="97" as="geometry"/>
                </mxCell>
                <mxCell id="J04aRP4YRwg-HHfzy6TA-77" value="5V, 3.3V, 2.5V, 1.8V, 1.2V" style="text;html=1;align=center;verticalAlign=middle;resizable=0;points=[];autosize=1;strokeColor=none;fillColor=none;fontSize=16;movable=0;rotatable=0;deletable=0;editable=0;connectable=0;" parent="1" vertex="1">
                    <mxGeometry x="775.5" y="165" width="199" height="31" as="geometry"/>
                </mxCell>
            </root>
        </mxGraphModel>
    </diagram>
    <diagram id="uS4k01sDEMPNWWleJP_P" name="Sơ đồ nguyên lý">
        <mxGraphModel dx="832" dy="488" grid="0" gridSize="5" guides="1" tooltips="1" connect="1" arrows="1" fold="1" page="0" pageScale="1" pageWidth="1169" pageHeight="827" math="0" shadow="0">
            <root>
                <mxCell id="0"/>
                <mxCell id="1" parent="0"/>
                <mxCell id="z0PADiJRMiL6y2MGorzI-2" value="&lt;font style=&quot;font-size: 20px;&quot;&gt;&lt;b&gt;COUNTER&lt;/b&gt;&lt;/font&gt;" style="rounded=0;whiteSpace=wrap;html=1;movable=0;resizable=0;rotatable=0;deletable=0;editable=0;connectable=0;" parent="1" vertex="1">
                    <mxGeometry x="924" y="175" width="120" height="60" as="geometry"/>
                </mxCell>
                <mxCell id="g_HPDG9XyytsM9NVPjjb-9" style="edgeStyle=orthogonalEdgeStyle;rounded=1;orthogonalLoop=1;jettySize=auto;html=1;entryX=0;entryY=0.5;entryDx=0;entryDy=0;strokeWidth=2;movable=0;resizable=0;rotatable=0;deletable=0;editable=0;connectable=0;" parent="1" source="z0PADiJRMiL6y2MGorzI-4" target="g_HPDG9XyytsM9NVPjjb-1" edge="1">
                    <mxGeometry relative="1" as="geometry"/>
                </mxCell>
                <UserObject label="&lt;font style=&quot;font-size: 34px;&quot;&gt;&lt;b&gt;FPGA&lt;br&gt;Spartan 6&lt;br&gt;&lt;/b&gt;&lt;/font&gt;" link="data:page/id,cck2CEQ4M-yUAi_b9hWY" id="z0PADiJRMiL6y2MGorzI-4">
                    <mxCell style="whiteSpace=wrap;html=1;aspect=fixed;movable=0;resizable=0;rotatable=0;deletable=0;editable=0;connectable=0;" parent="1" vertex="1">
                        <mxGeometry x="494" y="310" width="230" height="230" as="geometry"/>
                    </mxCell>
                </UserObject>
                <mxCell id="z0PADiJRMiL6y2MGorzI-5" value="" style="shape=singleArrow;direction=west;whiteSpace=wrap;html=1;fontSize=34;arrowWidth=0.4071389790815993;arrowSize=0.11767672119549388;movable=0;resizable=0;rotatable=0;deletable=0;editable=0;connectable=0;" parent="1" vertex="1">
                    <mxGeometry x="724" y="335" width="206" height="57" as="geometry"/>
                </mxCell>
                <mxCell id="z0PADiJRMiL6y2MGorzI-6" value="" style="shape=singleArrow;whiteSpace=wrap;html=1;fontSize=20;arrowWidth=0.5866661919487853;arrowSize=0.21666666666666742;movable=0;resizable=0;rotatable=0;deletable=0;editable=0;connectable=0;" parent="1" vertex="1">
                    <mxGeometry x="724" y="481.75" width="100" height="42.5" as="geometry"/>
                </mxCell>
                <mxCell id="z0PADiJRMiL6y2MGorzI-7" value="&lt;font style=&quot;font-size: 20px;&quot;&gt;&lt;b&gt;3.3V-5V&lt;/b&gt;&lt;/font&gt;" style="rounded=0;whiteSpace=wrap;html=1;movable=0;resizable=0;rotatable=0;deletable=0;editable=0;connectable=0;" parent="1" vertex="1">
                    <mxGeometry x="1044" y="473" width="120" height="60" as="geometry"/>
                </mxCell>
                <mxCell id="z0PADiJRMiL6y2MGorzI-9" value="47bit" style="text;html=1;align=center;verticalAlign=middle;resizable=0;points=[];autosize=1;strokeColor=none;fillColor=none;fontSize=16;movable=0;rotatable=0;deletable=0;editable=0;connectable=0;" parent="1" vertex="1">
                    <mxGeometry x="744" y="488" width="60" height="30" as="geometry"/>
                </mxCell>
                <mxCell id="z0PADiJRMiL6y2MGorzI-10" value="&lt;font style=&quot;font-size: 20px;&quot;&gt;&lt;b&gt;MẠCH KIỂM TRA&lt;/b&gt;&lt;/font&gt;" style="rounded=0;whiteSpace=wrap;html=1;fontSize=20;movable=0;resizable=0;rotatable=0;deletable=0;editable=0;connectable=0;" parent="1" vertex="1">
                    <mxGeometry x="1264" y="320" width="74" height="233" as="geometry"/>
                </mxCell>
                <mxCell id="z0PADiJRMiL6y2MGorzI-11" value="&lt;font size=&quot;1&quot; style=&quot;&quot;&gt;&lt;b style=&quot;font-size: 20px;&quot;&gt;RAM_IN&lt;/b&gt;&lt;/font&gt;" style="rounded=0;whiteSpace=wrap;html=1;movable=0;resizable=0;rotatable=0;deletable=0;editable=0;connectable=0;" parent="1" vertex="1">
                    <mxGeometry x="824" y="470" width="120" height="60" as="geometry"/>
                </mxCell>
                <mxCell id="z0PADiJRMiL6y2MGorzI-12" value="" style="shape=singleArrow;direction=west;whiteSpace=wrap;html=1;fontSize=34;arrowWidth=0.38993614724597164;arrowSize=0.13546441715420487;movable=0;resizable=0;rotatable=0;deletable=0;editable=0;connectable=0;" parent="1" vertex="1">
                    <mxGeometry x="1044" y="339" width="219" height="53" as="geometry"/>
                </mxCell>
                <mxCell id="z0PADiJRMiL6y2MGorzI-14" value="" style="shape=singleArrow;whiteSpace=wrap;html=1;fontSize=20;arrowWidth=0.6053758518670179;arrowSize=0.20645117975050425;movable=0;resizable=0;rotatable=0;deletable=0;editable=0;connectable=0;" parent="1" vertex="1">
                    <mxGeometry x="1164" y="481.75" width="100" height="39" as="geometry"/>
                </mxCell>
                <mxCell id="z0PADiJRMiL6y2MGorzI-15" value="47bit" style="text;html=1;align=center;verticalAlign=middle;resizable=0;points=[];autosize=1;strokeColor=none;fillColor=none;fontSize=16;movable=0;rotatable=0;deletable=0;editable=0;connectable=0;" parent="1" vertex="1">
                    <mxGeometry x="1175" y="486.25" width="60" height="30" as="geometry"/>
                </mxCell>
                <mxCell id="z0PADiJRMiL6y2MGorzI-19" value="58bit" style="text;html=1;align=center;verticalAlign=middle;resizable=0;points=[];autosize=1;strokeColor=none;fillColor=none;fontSize=16;movable=0;rotatable=0;deletable=0;editable=0;connectable=0;" parent="1" vertex="1">
                    <mxGeometry x="1137" y="350" width="60" height="30" as="geometry"/>
                </mxCell>
                <mxCell id="z0PADiJRMiL6y2MGorzI-20" value="" style="shape=singleArrow;whiteSpace=wrap;html=1;fontSize=20;arrowWidth=0.5341072691542323;arrowSize=0.20846146803635748;movable=0;resizable=0;rotatable=0;deletable=0;editable=0;connectable=0;" parent="1" vertex="1">
                    <mxGeometry x="944" y="480" width="100" height="46" as="geometry"/>
                </mxCell>
                <mxCell id="z0PADiJRMiL6y2MGorzI-21" value="47bit" style="text;html=1;align=center;verticalAlign=middle;resizable=0;points=[];autosize=1;strokeColor=none;fillColor=none;fontSize=16;movable=0;rotatable=0;deletable=0;editable=0;connectable=0;" parent="1" vertex="1">
                    <mxGeometry x="961" y="488" width="60" height="30" as="geometry"/>
                </mxCell>
                <mxCell id="z0PADiJRMiL6y2MGorzI-22" value="&lt;font size=&quot;1&quot; style=&quot;&quot;&gt;&lt;b style=&quot;font-size: 20px;&quot;&gt;RAM_OUT&lt;/b&gt;&lt;/font&gt;" style="rounded=0;whiteSpace=wrap;html=1;fillColor=default;movable=0;resizable=0;rotatable=0;deletable=0;editable=0;connectable=0;" parent="1" vertex="1">
                    <mxGeometry x="924" y="335" width="120" height="60" as="geometry"/>
                </mxCell>
                <mxCell id="z0PADiJRMiL6y2MGorzI-24" value="" style="shape=singleArrow;direction=south;whiteSpace=wrap;html=1;shadow=0;fontSize=16;fillColor=none;arrowWidth=0.42000081380208104;arrowSize=0.23080004882812546;movable=0;resizable=0;rotatable=0;deletable=0;editable=0;connectable=0;" parent="1" vertex="1">
                    <mxGeometry x="954" y="235" width="60" height="100" as="geometry"/>
                </mxCell>
                <mxCell id="z0PADiJRMiL6y2MGorzI-25" style="edgeStyle=orthogonalEdgeStyle;rounded=0;orthogonalLoop=1;jettySize=auto;html=1;exitX=1;exitY=0.5;exitDx=0;exitDy=0;entryX=0;entryY=0.5;entryDx=0;entryDy=0;fontSize=16;strokeWidth=2;movable=0;resizable=0;rotatable=0;deletable=0;editable=0;connectable=0;" parent="1" source="z0PADiJRMiL6y2MGorzI-26" target="z0PADiJRMiL6y2MGorzI-2" edge="1">
                    <mxGeometry relative="1" as="geometry"/>
                </mxCell>
                <mxCell id="z0PADiJRMiL6y2MGorzI-26" value="&lt;font style=&quot;font-size: 20px;&quot;&gt;&lt;b&gt;3.3V-5V&lt;/b&gt;&lt;/font&gt;" style="rounded=0;whiteSpace=wrap;html=1;movable=0;resizable=0;rotatable=0;deletable=0;editable=0;connectable=0;" parent="1" vertex="1">
                    <mxGeometry x="718" y="175" width="120" height="60" as="geometry"/>
                </mxCell>
                <mxCell id="z0PADiJRMiL6y2MGorzI-3" style="edgeStyle=orthogonalEdgeStyle;rounded=1;orthogonalLoop=1;jettySize=auto;html=1;entryX=0;entryY=0.5;entryDx=0;entryDy=0;fontSize=16;strokeWidth=2;movable=0;resizable=0;rotatable=0;deletable=0;editable=0;connectable=0;" parent="1" source="z0PADiJRMiL6y2MGorzI-4" target="z0PADiJRMiL6y2MGorzI-26" edge="1">
                    <mxGeometry relative="1" as="geometry"/>
                </mxCell>
                <mxCell id="z0PADiJRMiL6y2MGorzI-27" value="&lt;font style=&quot;font-size: 20px;&quot;&gt;&lt;b&gt;COUNTER&lt;/b&gt;&lt;/font&gt;" style="rounded=0;whiteSpace=wrap;html=1;fillColor=default;movable=0;resizable=0;rotatable=0;deletable=0;editable=0;connectable=0;" parent="1" vertex="1">
                    <mxGeometry x="824" y="630" width="120" height="60" as="geometry"/>
                </mxCell>
                <mxCell id="z0PADiJRMiL6y2MGorzI-29" value="" style="shape=singleArrow;direction=north;whiteSpace=wrap;html=1;shadow=0;fontSize=16;fillColor=none;arrowWidth=0.39599934895833255;arrowSize=0.1808001708984375;movable=0;resizable=0;rotatable=0;deletable=0;editable=0;connectable=0;" parent="1" vertex="1">
                    <mxGeometry x="854" y="530" width="60" height="100" as="geometry"/>
                </mxCell>
                <mxCell id="z0PADiJRMiL6y2MGorzI-30" value="&lt;font style=&quot;font-size: 17px;&quot;&gt;16bit&lt;/font&gt;" style="text;html=1;align=center;verticalAlign=middle;resizable=0;points=[];autosize=1;strokeColor=none;fillColor=none;fontSize=16;rotation=90;movable=0;rotatable=0;deletable=0;editable=0;connectable=0;" parent="1" vertex="1">
                    <mxGeometry x="854" y="565" width="60" height="30" as="geometry"/>
                </mxCell>
                <mxCell id="z0PADiJRMiL6y2MGorzI-31" value="&lt;font style=&quot;font-size: 18px;&quot;&gt;16bit&lt;/font&gt;" style="text;html=1;align=center;verticalAlign=middle;resizable=0;points=[];autosize=1;strokeColor=none;fillColor=none;fontSize=16;rotation=90;movable=0;rotatable=0;deletable=0;editable=0;connectable=0;" parent="1" vertex="1">
                    <mxGeometry x="955" y="256" width="60" height="40" as="geometry"/>
                </mxCell>
                <mxCell id="z0PADiJRMiL6y2MGorzI-32" value="&lt;b&gt;USB-TTL&lt;/b&gt;" style="rounded=0;whiteSpace=wrap;html=1;shadow=0;fontSize=20;fillColor=default;movable=0;resizable=0;rotatable=0;deletable=0;editable=0;connectable=0;" parent="1" vertex="1">
                    <mxGeometry x="274" y="403" width="120" height="70" as="geometry"/>
                </mxCell>
                <UserObject label="&lt;div style=&quot;&quot;&gt;&lt;b style=&quot;background-color: initial; font-size: 20px; line-height: 1.2;&quot;&gt;POWER SUPPLY&lt;/b&gt;&lt;/div&gt;" link="data:page/id,sGHtnwmwazoI8e1FeK_W" id="z0PADiJRMiL6y2MGorzI-36">
                    <mxCell style="rounded=0;whiteSpace=wrap;html=1;shadow=0;fontSize=12;fillColor=default;align=center;movable=0;resizable=0;rotatable=0;deletable=0;editable=0;connectable=0;" parent="1" vertex="1">
                        <mxGeometry x="1120" y="175" width="218" height="97" as="geometry"/>
                    </mxCell>
                </UserObject>
                <mxCell id="z0PADiJRMiL6y2MGorzI-41" value="58bit" style="text;html=1;align=center;verticalAlign=middle;resizable=0;points=[];autosize=1;strokeColor=none;fillColor=none;fontSize=17;movable=0;rotatable=0;deletable=0;editable=0;connectable=0;" parent="1" vertex="1">
                    <mxGeometry x="814" y="348" width="60" height="35" as="geometry"/>
                </mxCell>
                <UserObject label="" id="Eknbp8VvzZbsxkmtPXxL-1">
                    <mxCell style="fontColor=#0066CC;verticalAlign=top;verticalLabelPosition=bottom;labelPosition=center;align=center;html=1;outlineConnect=0;fillColor=#CCCCCC;strokeColor=#6881B3;gradientColor=none;gradientDirection=north;strokeWidth=2;shape=mxgraph.networks.laptop;fontSize=17;movable=0;resizable=0;rotatable=0;deletable=0;editable=0;connectable=0;" parent="1" vertex="1">
                        <mxGeometry x="268" y="175" width="140" height="95" as="geometry"/>
                    </mxCell>
                </UserObject>
                <mxCell id="Eknbp8VvzZbsxkmtPXxL-8" value="" style="endArrow=classic;html=1;rounded=1;strokeWidth=2;fontSize=17;movable=0;resizable=0;rotatable=0;deletable=0;editable=0;connectable=0;" parent="1" edge="1">
                    <mxGeometry width="50" height="50" relative="1" as="geometry">
                        <mxPoint x="344" y="272" as="sourcePoint"/>
                        <mxPoint x="344.00000000000006" y="403.00000000000006" as="targetPoint"/>
                        <Array as="points">
                            <mxPoint x="344.08" y="305.07"/>
                            <mxPoint x="344.08" y="350.07"/>
                        </Array>
                    </mxGeometry>
                </mxCell>
                <mxCell id="Eknbp8VvzZbsxkmtPXxL-10" value="" style="endArrow=classic;html=1;rounded=1;strokeWidth=2;fontSize=17;exitX=0.416;exitY=-0.001;exitDx=0;exitDy=0;exitPerimeter=0;movable=0;resizable=0;rotatable=0;deletable=0;editable=0;connectable=0;" parent="1" edge="1">
                    <mxGeometry width="50" height="50" relative="1" as="geometry">
                        <mxPoint x="333.83000000000004" y="403.00000000000006" as="sourcePoint"/>
                        <mxPoint x="334" y="272" as="targetPoint"/>
                        <Array as="points">
                            <mxPoint x="333.90999999999997" y="350.07"/>
                            <mxPoint x="333.90999999999997" y="305.07"/>
                        </Array>
                    </mxGeometry>
                </mxCell>
                <mxCell id="Eknbp8VvzZbsxkmtPXxL-11" value="&lt;font color=&quot;#000000&quot;&gt;Laptop&lt;/font&gt;" style="text;html=1;align=center;verticalAlign=middle;resizable=0;points=[];autosize=1;fontSize=17;strokeColor=none;strokeWidth=1;movable=0;rotatable=0;deletable=0;editable=0;connectable=0;" parent="1" vertex="1">
                    <mxGeometry x="296.5" y="196" width="75" height="35" as="geometry"/>
                </mxCell>
                <mxCell id="Eknbp8VvzZbsxkmtPXxL-13" value="" style="endArrow=classic;html=1;rounded=1;strokeWidth=2;fontSize=17;entryX=-0.005;entryY=0.524;entryDx=0;entryDy=0;entryPerimeter=0;movable=0;resizable=0;rotatable=0;deletable=0;editable=0;connectable=0;" parent="1" target="z0PADiJRMiL6y2MGorzI-4" edge="1">
                    <mxGeometry width="50" height="50" relative="1" as="geometry">
                        <mxPoint x="394" y="430" as="sourcePoint"/>
                        <mxPoint x="449" y="430" as="targetPoint"/>
                    </mxGeometry>
                </mxCell>
                <mxCell id="Eknbp8VvzZbsxkmtPXxL-14" value="" style="endArrow=classic;html=1;rounded=1;strokeWidth=2;fontSize=17;entryX=-0.005;entryY=0.524;entryDx=0;entryDy=0;entryPerimeter=0;movable=0;resizable=0;rotatable=0;deletable=0;editable=0;connectable=0;" parent="1" edge="1">
                    <mxGeometry width="50" height="50" relative="1" as="geometry">
                        <mxPoint x="494" y="445.52" as="sourcePoint"/>
                        <mxPoint x="395.15" y="445" as="targetPoint"/>
                    </mxGeometry>
                </mxCell>
                <mxCell id="g_HPDG9XyytsM9NVPjjb-3" style="edgeStyle=none;curved=1;rounded=0;orthogonalLoop=1;jettySize=auto;html=1;entryX=0;entryY=0.5;entryDx=0;entryDy=0;fontSize=12;endArrow=classic;sourcePerimeterSpacing=8;targetPerimeterSpacing=8;endFill=1;strokeWidth=2;movable=0;resizable=0;rotatable=0;deletable=0;editable=0;connectable=0;" parent="1" target="z0PADiJRMiL6y2MGorzI-27" edge="1">
                    <mxGeometry relative="1" as="geometry">
                        <mxPoint x="777" y="660" as="sourcePoint"/>
                    </mxGeometry>
                </mxCell>
                <mxCell id="g_HPDG9XyytsM9NVPjjb-1" value="&lt;font style=&quot;font-size: 20px;&quot;&gt;&lt;b&gt;3.3V-5V&lt;/b&gt;&lt;/font&gt;" style="rounded=0;whiteSpace=wrap;html=1;movable=0;resizable=0;rotatable=0;deletable=0;editable=0;connectable=0;" parent="1" vertex="1">
                    <mxGeometry x="656" y="630" width="120" height="60" as="geometry"/>
                </mxCell>
            </root>
        </mxGraphModel>
    </diagram>
    <diagram id="cck2CEQ4M-yUAi_b9hWY" name="FPGA-SPT6">
        <mxGraphModel dx="832" dy="488" grid="0" gridSize="5" guides="1" tooltips="1" connect="1" arrows="1" fold="1" page="0" pageScale="1" pageWidth="1169" pageHeight="827" math="0" shadow="0">
            <root>
                <mxCell id="0"/>
                <mxCell id="1" parent="0"/>
                <mxCell id="-IoPmuw94fnaQFEw6HHc-21" value="" style="rounded=1;whiteSpace=wrap;html=1;fontSize=20;fillColor=none;dashed=1;movable=0;resizable=0;rotatable=0;deletable=0;editable=0;connectable=0;" parent="1" vertex="1">
                    <mxGeometry x="198" y="76" width="694" height="750" as="geometry"/>
                </mxCell>
                <mxCell id="-IoPmuw94fnaQFEw6HHc-6" value="&lt;font style=&quot;font-size: 20px;&quot;&gt;FIFO_RX&lt;/font&gt;" style="rounded=0;whiteSpace=wrap;html=1;fontSize=17;movable=0;resizable=0;rotatable=0;deletable=0;editable=0;connectable=0;" parent="1" vertex="1">
                    <mxGeometry x="528" y="186" width="120" height="170" as="geometry"/>
                </mxCell>
                <mxCell id="-IoPmuw94fnaQFEw6HHc-7" value="&lt;font style=&quot;font-size: 20px;&quot;&gt;FIFO_TX&lt;/font&gt;" style="rounded=0;whiteSpace=wrap;html=1;fontSize=17;movable=0;resizable=0;rotatable=0;deletable=0;editable=0;connectable=0;" parent="1" vertex="1">
                    <mxGeometry x="528" y="426" width="120" height="170" as="geometry"/>
                </mxCell>
                <mxCell id="-IoPmuw94fnaQFEw6HHc-8" value="BAUD_RATE_GENERATOR" style="rounded=0;whiteSpace=wrap;html=1;fontSize=20;movable=0;resizable=0;rotatable=0;deletable=0;editable=0;connectable=0;" parent="1" vertex="1">
                    <mxGeometry x="232" y="650" width="280" height="46" as="geometry"/>
                </mxCell>
                <mxCell id="-IoPmuw94fnaQFEw6HHc-9" value="&lt;span style=&quot;background-color: initial;&quot;&gt;RAM_ TO_ FIFO&lt;/span&gt;" style="rounded=0;whiteSpace=wrap;html=1;fontSize=20;align=center;verticalAlign=middle;horizontal=0;movable=0;resizable=0;rotatable=0;deletable=0;editable=0;connectable=0;" parent="1" vertex="1">
                    <mxGeometry x="758" y="186" width="60" height="170" as="geometry"/>
                </mxCell>
                <mxCell id="-IoPmuw94fnaQFEw6HHc-10" value="&lt;span style=&quot;background-color: initial;&quot;&gt;FIFO_ TO_ RAM&lt;/span&gt;" style="rounded=0;whiteSpace=wrap;html=1;fontSize=20;align=center;verticalAlign=middle;horizontal=0;movable=0;resizable=0;rotatable=0;deletable=0;editable=0;connectable=0;" parent="1" vertex="1">
                    <mxGeometry x="758" y="426" width="60" height="170" as="geometry"/>
                </mxCell>
                <mxCell id="-IoPmuw94fnaQFEw6HHc-11" value="UART&lt;br&gt;CONTROLLER_RX" style="rounded=0;whiteSpace=wrap;html=1;fontSize=20;movable=0;resizable=0;rotatable=0;deletable=0;editable=0;connectable=0;" parent="1" vertex="1">
                    <mxGeometry x="238" y="426" width="180" height="170" as="geometry"/>
                </mxCell>
                <mxCell id="-IoPmuw94fnaQFEw6HHc-12" value="UART&lt;br&gt;CONTROLLER_TX" style="rounded=0;whiteSpace=wrap;html=1;fontSize=20;movable=0;resizable=0;rotatable=0;deletable=0;editable=0;connectable=0;" parent="1" vertex="1">
                    <mxGeometry x="238" y="186" width="180" height="170" as="geometry"/>
                </mxCell>
                <mxCell id="-IoPmuw94fnaQFEw6HHc-14" value="" style="html=1;shadow=0;dashed=0;align=center;verticalAlign=middle;shape=mxgraph.arrows2.arrow;dy=0.6;dx=40;notch=0;fontSize=20;movable=0;resizable=0;rotatable=0;deletable=0;editable=0;connectable=0;" parent="1" vertex="1">
                    <mxGeometry x="418" y="486" width="107" height="70" as="geometry"/>
                </mxCell>
                <mxCell id="-IoPmuw94fnaQFEw6HHc-15" value="" style="html=1;shadow=0;dashed=0;align=center;verticalAlign=middle;shape=mxgraph.arrows2.arrow;dy=0.6;dx=40;notch=0;fontSize=20;movable=0;resizable=0;rotatable=0;deletable=0;editable=0;connectable=0;" parent="1" vertex="1">
                    <mxGeometry x="648" y="486" width="107" height="70" as="geometry"/>
                </mxCell>
                <mxCell id="-IoPmuw94fnaQFEw6HHc-16" value="" style="html=1;shadow=0;dashed=0;align=center;verticalAlign=middle;shape=mxgraph.arrows2.arrow;dy=0.6;dx=40;notch=0;fontSize=20;movable=0;resizable=0;rotatable=0;deletable=0;editable=0;connectable=0;" parent="1" vertex="1">
                    <mxGeometry x="818" y="485" width="170" height="70" as="geometry"/>
                </mxCell>
                <mxCell id="-IoPmuw94fnaQFEw6HHc-17" value="" style="html=1;shadow=0;dashed=0;align=center;verticalAlign=middle;shape=mxgraph.arrows2.arrow;dy=0.6;dx=40;flipH=1;notch=0;fontSize=20;movable=0;resizable=0;rotatable=0;deletable=0;editable=0;connectable=0;" parent="1" vertex="1">
                    <mxGeometry x="818" y="236" width="170" height="70" as="geometry"/>
                </mxCell>
                <mxCell id="-IoPmuw94fnaQFEw6HHc-18" value="" style="html=1;shadow=0;dashed=0;align=center;verticalAlign=middle;shape=mxgraph.arrows2.arrow;dy=0.6;dx=40;flipH=1;notch=0;fontSize=20;movable=0;resizable=0;rotatable=0;deletable=0;editable=0;connectable=0;" parent="1" vertex="1">
                    <mxGeometry x="651" y="245" width="107" height="70" as="geometry"/>
                </mxCell>
                <mxCell id="-IoPmuw94fnaQFEw6HHc-19" value="" style="html=1;shadow=0;dashed=0;align=center;verticalAlign=middle;shape=mxgraph.arrows2.arrow;dy=0.6;dx=40;flipH=1;notch=0;fontSize=20;movable=0;resizable=0;rotatable=0;deletable=0;editable=0;connectable=0;" parent="1" vertex="1">
                    <mxGeometry x="420" y="236" width="108" height="70" as="geometry"/>
                </mxCell>
                <mxCell id="-IoPmuw94fnaQFEw6HHc-20" value="&lt;font style=&quot;font-size: 25px;&quot;&gt;LINH KIỆN BÊN NGOÀI&lt;/font&gt;" style="rounded=0;whiteSpace=wrap;html=1;fontSize=20;horizontal=0;movable=0;resizable=0;rotatable=0;deletable=0;editable=0;connectable=0;" parent="1" vertex="1">
                    <mxGeometry x="988" y="196" width="70" height="410" as="geometry"/>
                </mxCell>
                <mxCell id="qXQmcnfSAn9-ShwyuXyl-1" value="&lt;font style=&quot;font-size: 30px;&quot;&gt;&lt;b&gt;FPGA_SPT6&lt;/b&gt;&lt;/font&gt;" style="text;html=1;align=center;verticalAlign=middle;resizable=0;points=[];autosize=1;strokeColor=none;fillColor=none;fontSize=20;movable=0;rotatable=0;deletable=0;editable=0;connectable=0;" parent="1" vertex="1">
                    <mxGeometry x="457" y="97" width="193" height="48" as="geometry"/>
                </mxCell>
                <mxCell id="W5mUpB36JcVwU94Q0sYr-2" value="&lt;font style=&quot;font-size: 20px;&quot;&gt;COUNTER_CONTROLLER&lt;/font&gt;" style="rounded=0;whiteSpace=wrap;html=1;fontSize=25;fillColor=none;movable=0;resizable=0;rotatable=0;deletable=0;editable=0;connectable=0;" parent="1" vertex="1">
                    <mxGeometry x="402" y="736" width="271" height="60" as="geometry"/>
                </mxCell>
                <mxCell id="W5mUpB36JcVwU94Q0sYr-3" value="&lt;font style=&quot;font-size: 20px;&quot;&gt;RAM_CONTROLLER&lt;/font&gt;" style="rounded=0;whiteSpace=wrap;html=1;fontSize=25;fillColor=none;movable=0;resizable=0;rotatable=0;deletable=0;editable=0;connectable=0;" parent="1" vertex="1">
                    <mxGeometry x="590" y="650" width="223" height="60" as="geometry"/>
                </mxCell>
            </root>
        </mxGraphModel>
    </diagram>
</mxfile>